<?xml version="1.0" encoding="UTF-8" standalone="no"?>
<!DOCTYPE svg PUBLIC "-//W3C//DTD SVG 1.1//EN" "http://www.w3.org/Graphics/SVG/1.1/DTD/svg11.dtd">
<svg width="100%" height="100%" viewBox="0 0 1465 505" version="1.1" xmlns="http://www.w3.org/2000/svg" xmlns:xlink="http://www.w3.org/1999/xlink" xml:space="preserve" xmlns:serif="http://www.serif.com/" style="fill-rule:evenodd;clip-rule:evenodd;stroke-linejoin:round;stroke-miterlimit:2;">
    <g transform="matrix(1,0,0,1,-216.953395,-310.622927)">
        <g transform="matrix(2,0,0,2,-74.046008,-53.001353)">
            <path d="M255,182L272,182C297,187 295,193 310,199C323,204 343,222 349,234C351,237 352,237 356,236C376,230 387,261 367,275C362,279 367,281 365,301C365,309 359,358 309,383C230,423 146,356 157,280C158,275 156,276 151,270C144,263 143,248 152,241C163,230 170,240 173,235C175,232 189,211 209,201C236,186 236,185 255,182Z" style="fill:rgb(2,23,48);"/>
        </g>
        <g transform="matrix(2,0,0,2,-74.046008,-53.001353)">
            <path d="M297,343C297,351 299,362 281,367C280,367 242,368 235,366C217,359 228,341 221,338C220,338 184,334 191,292C192,282 191,280 201,276C209,272 232,263 236,264C239,265 239,265 272,277C276,279 267,288 273,304C284,331 317,330 322,296C322,291 324,292 328,294C333,296 329,315 327,320C323,327 317,332 307,336C300,337 298,336 297,343Z" style="fill:rgb(252,253,253);"/>
        </g>
        <g transform="matrix(2,0,0,2,-74.046008,-53.001353)">
            <path d="M155,258C160,250 162,250 165,252C194,266 211,234 213,231C218,221 228,194 269,197C293,199 304,220 306,224C308,228 320,257 345,255C357,254 359,245 365,255L367,258C367,259 366,259 366,260C366,260 367,260 367,261C367,261 363,268 361,269C333,290 310,242 237,255C211,260 209,266 188,273C169,279 155,269 155,258Z" style="fill:rgb(1,33,64);"/>
        </g>
        <g transform="matrix(2,0,0,2,-74.046008,-53.001353)">
            <path d="M216,348C216,349 217,363 226,369C236,376 242,374 271,375C272,375 293,377 302,361C306,353 303,345 307,344C321,339 332,334 337,312C338,311 338,311 340,311C354,316 354,315 354,317C356,324 324,396 245,386C214,382 159,349 164,284C165,278 168,283 181,283C183,283 184,282 184,284C184,287 174,326 205,340C211,343 216,342 216,348Z" style="fill:rgb(3,201,190);"/>
        </g>
        <g transform="matrix(2,0,0,2,-74.046008,-53.001353)">
            <path d="M266,434C187,434 152,427 180,420C219,412 369,415 351,426C342,432 289,434 266,434Z" style="fill:rgb(235,235,233);"/>
        </g>
        <g transform="matrix(2,0,0,2,-74.046008,-53.001353)">
            <path d="M533,320C524,319 525,315 525,285C525,283 524,274 532,275C538,275 537,281 540,279C547,271 558,274 561,279C565,284 565,271 579,274C592,276 592,286 591,311C591,323 577,322 577,313C577,295 579,286 572,286C558,286 573,321 558,320C543,319 559,280 543,286C533,290 547,318 533,320Z" style="fill:rgb(1,23,54);"/>
        </g>
        <g transform="matrix(2,0,0,2,-74.046008,-53.001353)">
            <path d="M155,258C150,258 156,239 165,244C193,256 201,236 212,217C223,196 245,189 263,189C307,190 314,228 325,239C342,256 357,241 363,243C370,246 370,253 370,255C370,258 370,259 367,258L365,255C359,245 357,254 345,255C320,257 308,228 306,224C304,220 293,199 269,197C228,194 218,221 213,231C211,234 194,266 165,252C162,250 160,250 155,258Z" style="fill:rgb(228,194,116);"/>
        </g>
        <g transform="matrix(2,0,0,2,-74.046008,-53.001353)">
            <path d="M642,295C642,289 640,274 649,275C654,275 655,279 655,279C656,280 660,274 666,274C678,273 677,280 680,280C680,280 692,268 703,277C705,279 710,282 708,312C708,313 708,319 702,320C687,324 701,287 689,286C675,285 689,316 678,320C660,325 675,286 663,286C649,285 663,316 651,320C640,323 642,304 642,295Z" style="fill:rgb(1,24,54);"/>
        </g>
        <g transform="matrix(2,0,0,2,-74.046008,-53.001353)">
            <path d="M407,320C397,316 402,308 403,305C416,274 416,262 425,260C438,256 442,272 444,281C453,306 460,317 450,320C442,322 440,310 439,310C439,308 439,307 420,308C414,308 419,320 407,320ZM429,274C428,274 428,274 428,275C425,285 424,285 422,294C421,297 435,296 435,294C436,293 430,276 429,274Z" style="fill:rgb(1,23,52);"/>
        </g>
        <g transform="matrix(2,0,0,2,-74.046008,-53.001353)">
            <path d="M730,274C731,274 738,274 742,278C745,280 744,276 749,275C759,273 757,288 757,294C757,310 758,318 753,320C748,322 748,319 745,315C743,314 740,318 737,320C713,328 699,282 730,274ZM743,293C740,281 726,285 726,298C727,311 745,314 743,293Z" style="fill:rgb(1,23,53);"/>
        </g>
        <g transform="matrix(2,0,0,2,-74.046008,-53.001353)">
            <path d="M248,303C239,334 199,324 205,299C210,277 251,271 248,303Z" style="fill:rgb(1,25,52);"/>
        </g>
        <g transform="matrix(2,0,0,2,-74.046008,-53.001353)">
            <path d="M822,301C811,301 805,301 806,304C811,315 825,305 828,306C839,309 826,325 807,320C781,312 790,266 820,275C836,280 837,300 827,301L822,301ZM817,293C817,293 820,293 821,292C822,284 807,281 806,292C805,294 814,293 817,293Z" style="fill:rgb(2,24,54);"/>
        </g>
        <g transform="matrix(2,0,0,2,-74.046008,-53.001353)">
            <path d="M621,301C618,301 609,300 610,303C611,308 618,310 623,308C624,308 631,306 633,306C645,311 621,331 602,314C588,302 599,268 624,274C638,278 642,298 630,300L621,301ZM619,293C624,293 626,292 623,288C617,279 608,290 610,292C610,293 618,293 619,293Z" style="fill:rgb(2,23,51);"/>
        </g>
        <g transform="matrix(2,0,0,2,-74.046008,-53.001353)">
            <path d="M846,338C846,338 837,340 836,333C836,324 844,329 848,322C851,317 848,317 842,301C838,291 830,276 841,274C848,274 849,283 854,294C856,301 856,306 857,301C859,297 864,280 865,279C867,271 880,273 877,284C876,289 863,323 860,327C854,337 849,337 846,338Z" style="fill:rgb(1,21,51);"/>
        </g>
        <g transform="matrix(2,0,0,2,-74.046008,-53.001353)">
            <path d="M780,303C780,307 781,308 786,308C796,309 787,325 774,319C761,314 769,289 765,287C761,283 759,284 761,279C762,274 766,275 766,273C766,272 765,265 772,263C781,262 780,274 781,275C784,275 789,273 790,281C791,287 780,285 780,287L780,303Z" style="fill:rgb(1,22,51);"/>
        </g>
        <g transform="matrix(2,0,0,2,-74.046008,-53.001353)">
            <path d="M473,280C484,265 495,282 486,287C480,289 474,285 474,300C474,302 476,323 464,320C459,318 459,316 460,288C460,287 458,275 465,274C470,274 470,276 473,280Z" style="fill:rgb(1,23,54);"/>
        </g>
        <g transform="matrix(2,0,0,2,-74.046008,-53.001353)">
            <path d="M506,280C517,265 527,282 518,287C518,287 506,288 506,296C506,301 509,323 497,320C493,318 492,317 492,288C492,288 491,276 497,274C500,274 505,275 505,278C505,280 505,280 506,280Z" style="fill:rgb(2,25,56);"/>
        </g>
        <g transform="matrix(2,0,0,2,-74.046008,-53.001353)">
            <path d="M250,261C271,257 329,274 330,280C330,281 330,286 329,286C328,286 322,282 283,272C268,268 268,267 253,263C251,262 250,263 250,261Z" style="fill:rgb(245,249,248);"/>
        </g>
        <g transform="matrix(2,0,0,2,-74.046008,-53.001353)">
            <path d="M254,218C254,218 262,219 258,216C247,209 267,197 268,210C268,216 260,219 265,219C267,219 267,218 268,218C272,218 271,222 269,222C265,223 264,221 263,224C262,239 265,240 266,239C269,238 275,234 273,233C268,232 277,224 279,227C282,231 284,233 278,234C277,235 277,240 263,246C259,248 251,244 245,236C243,234 240,235 242,231C246,221 251,232 250,232C250,233 246,235 254,238C257,240 259,241 259,238C258,226 259,223 257,223C256,223 247,223 251,219C252,218 252,218 254,218Z" style="fill:rgb(249,251,250);"/>
        </g>
        <g transform="matrix(2,0,0,2,-74.046008,-53.001353)">
            <path d="M358,290C358,298 358,308 354,308C353,308 339,304 338,303L338,285C337,281 343,284 352,282C356,281 357,280 357,283L358,290Z" style="fill:rgb(4,199,191);"/>
        </g>
        <g transform="matrix(2,0,0,2,-74.046008,-53.001353)">
            <path d="M257,344C257,343 257,342 258,341C266,337 261,352 267,352C277,351 275,341 278,340C285,334 286,355 269,358C236,364 236,341 240,339C246,337 242,348 250,351C259,354 257,346 257,344Z" style="fill:rgb(2,16,35);"/>
        </g>
        <g transform="matrix(2,0,0,2,-74.046008,-53.001353)">
            <path d="M253,331C242,331 257,309 260,309C265,309 279,335 268,331C265,331 262,326 259,328C257,329 257,330 253,331Z" style="fill:rgb(2,20,44);"/>
        </g>
        <g transform="matrix(2,0,0,2,-74.046008,-53.001353)">
            <path d="M292,287L292,283L298,283C302,283 297,302 302,300C310,295 303,305 297,310C295,312 290,307 287,303C282,299 287,296 289,299C293,302 292,290 292,287Z" style="fill:rgb(245,225,161);"/>
        </g>
        <g transform="matrix(2,0,0,2,-74.046008,-53.001353)">
            <path d="M316,212L319,212C324,217 332,223 337,230C342,236 345,241 340,240C327,236 328,229 316,212Z" style="fill:rgb(8,197,198);"/>
        </g>
        <g transform="matrix(2,0,0,2,-74.046008,-53.001353)">
            <path d="M193,232C193,233 186,241 180,240C179,239 179,238 191,225C193,222 205,212 205,212C207,212 195,231 193,232Z" style="fill:rgb(7,198,197);"/>
        </g>
        <g transform="matrix(2,0,0,2,-74.046008,-53.001353)">
            <path d="M306,308C308,305 308,305 308,304C311,303 312,307 305,313C290,327 274,296 283,305C292,313 295,319 306,308Z" style="fill:rgb(221,136,127);"/>
        </g>
        <g transform="matrix(2,0,0,2,-74.046008,-53.001353)">
            <path d="M263,212C258,216 258,209 262,209C265,208 264,210 263,212Z" style="fill:rgb(9,19,27);"/>
        </g>
        <g transform="matrix(2,0,0,2,-74.046008,-53.001353)">
            <path d="M316,212C316,211 315,210 316,211C318,211 317,212 319,212L316,212Z" style="fill:rgb(16,72,93);"/>
        </g>
    </g>
</svg>
